<?xml version="1.0" encoding="utf-8"?>
<!-- Generator: Adobe Illustrator 18.0.0, SVG Export Plug-In . SVG Version: 6.00 Build 0)  -->
<svg version="1.2" baseProfile="tiny" id="圖層_1"
	 xmlns="http://www.w3.org/2000/svg" xmlns:xlink="http://www.w3.org/1999/xlink" x="0px" y="0px" viewBox="0 0 198.4 198.4"
	 xml:space="preserve">
<g>
	<rect x="1.4" y="1.3" fill="#395590" width="195.6" height="195.6"/>
	<path fill-rule="evenodd" fill="#FFFFFF" d="M105,156.7c0-12.8,0-25.5,0-38.3c0-2.2-0.6-2.8-2.7-2.7c-4,0.2-8,0-12,0.1
		c-1.6,0-2.2-0.4-2.2-2.1c0.1-8,0.1-15.9,0-23.9c0-1.5,0.4-2,2-2c4.1,0.1,8.2-0.1,12.2,0.1c2.4,0.1,2.8-0.7,2.8-2.9
		c-0.1-6.1-0.1-12.1,0-18.2c0.2-7.4,2.1-14.3,6.6-20.3c5.6-7.6,13.5-11.1,22.7-11.5c9.4-0.4,18.8-0.2,28.3-0.3
		c1.3,0,1.7,0.5,1.7,1.7c0,8.1-0.1,16.1,0,24.2c0,1.4-0.5,1.9-1.9,1.8c-4.5-0.1-9.1,0-13.6,0c-6,0-9.6,3.1-10,9.1
		c-0.3,4.8-0.1,9.6-0.2,14.4c0,1.7,1,1.6,2.1,1.6c6.9,0,13.8,0.1,20.6,0c2,0,2.7,0.4,2.5,2.6c-0.9,8-1.6,16-2.3,24.1
		c-0.2,1.8-1,2.2-2.6,2.1c-5.4-0.1-10.9-0.1-16.3,0c-3.9,0-3.5-0.6-3.5,3.4c0,25,0.1,77.7,0.1,77.7l-34.3,0.1
		C104.9,197.1,105,169.3,105,156.7z"/>
</g>
</svg>
