<?xml version="1.0" encoding="utf-8"?>
<!-- Generator: Adobe Illustrator 18.0.0, SVG Export Plug-In . SVG Version: 6.00 Build 0)  -->
<svg version="1.2" baseProfile="tiny" id="圖層_1"
	 xmlns="http://www.w3.org/2000/svg" xmlns:xlink="http://www.w3.org/1999/xlink" x="0px" y="0px" viewBox="0 0 198.4 198.4"
	 xml:space="preserve">
<rect x="1.4" y="1.4" fill="#DA6048" width="195.6" height="195.6"/>
<g>
	<g>
		<path fill="#FFFFFF" d="M101.6,107.6c-2.6-1.9-5.3-3.8-7.8-5.9c-3.3-2.8-3.8-6.3-1.4-10c0.9-1.4,2.2-2.6,3.5-3.6
			c2.9-2.3,5.9-4.6,8.5-7.2c2.5-2.4,4.2-5.3,5.4-8.5c3.5-10,0.4-21.4-7.8-28.9c-0.6-0.6-1.3-1.1-2.3-2.1c2.8,0,5.1,0,7.4,0
			c1.1,0,2.4,0.3,3.2-0.2c3.7-2.1,7.3-4.5,10.9-6.8c-0.1-0.1-0.1-0.3-0.2-0.4c-0.5,0-1,0-1.5,0c-11.7,0-23.5,0-35.2,0
			c-4.8,0-9.5,0.4-14.2,1.2c-4.1,0.7-8.2,1.9-12.1,3.6c-12.5,5.5-18.6,15.3-18.1,29c0.4,9.8,4.8,17,13.4,21.7c3.7,2,7.7,3,11.8,3.6
			c3.4,0.5,6.8,0.3,10.5,0.2c-3.9,7-0.9,12.6,3.5,18c-7.9,0.2-15.3,1-22.5,3c-7.6,2.1-14.7,5.2-20.2,11.2c-8.8,9.6-7.5,23,2.9,30.8
			c3.1,2.3,6.5,4.1,10.3,5.2c16.9,4.8,33.4,3.7,49.4-3.6c4.6-2.1,8.6-5.1,11.9-9.1c9.5-11.7,9-23.9-1.6-34.6
			C107,111.8,104.3,109.7,101.6,107.6z M71,87.1c-5.7-2.8-9.2-7.6-11.8-13.2c-2.1-4.6-3.1-9.5-3.2-14.6c0-2,0.2-4.1,0.7-6
			c2.8-11,14.6-15.8,24.2-9.6c7.5,4.8,11.3,12.2,13.3,20.6c0.9,3.9,1.2,7.8,0.3,11.7C92.3,86.5,80.8,91.9,71,87.1z M99.3,150.7
			c-4.1,3.5-9.1,5-14.3,5.7c-9.4,1.3-18.4-0.1-26.8-4.3c-1.9-0.9-3.6-2.1-5.3-3.4c-7.5-6.1-8-16.7-1.2-23.7
			c4.1-4.1,9.3-5.9,14.8-7.1c5-1.1,10.1-1.4,15.8-1.7c2.2-0.6,4.4,0.6,6.6,2.3c4,3,8.2,5.8,11.7,9.4
			C107.3,134.9,106.8,144.4,99.3,150.7z"/>
	</g>
	<polygon fill="#FFFFFF" points="167.7,92.6 147.1,92.6 147.1,72.8 139.7,72.8 139.7,92.6 119.1,92.6 119.1,99.2 139.7,99.2 
		139.7,118.3 147.1,118.3 147.1,99.2 167.7,99.2 	"/>
</g>
</svg>
