<?xml version="1.0" encoding="utf-8"?>
<!-- Generator: Adobe Illustrator 18.0.0, SVG Export Plug-In . SVG Version: 6.00 Build 0)  -->
<svg version="1.2" baseProfile="tiny" id="圖層_1"
	 xmlns="http://www.w3.org/2000/svg" xmlns:xlink="http://www.w3.org/1999/xlink" x="0px" y="0px" viewBox="0 0 50 50"
	 xml:space="preserve">
<g>
	<path fill="#FFFFFF" d="M39.2,32.4c0.2,0.2,0.2,0.3,0,0.4c-0.4,0.4-0.9,0.8-1.3,1.2c0,0-0.1,0.1-0.1,0.1c0,0.1,0,0.2,0.1,0.3
		c0.1,0.1,0.2,0.1,0.3,0c0.4-0.4,0.9-0.7,1.3-1.1c0.1-0.1,0.1-0.1,0.2-0.2c0.1,0,0.2,0,0.2,0c0,0.1,0,0.1,0,0.2c0,0,0,0.1-0.1,0.1
		c-0.4,0.4-0.9,0.9-1.3,1.3c-0.1,0.1-0.2,0.3,0,0.4c0.1,0.1,0.3,0.1,0.4,0c0.4-0.4,0.9-0.8,1.3-1.2c0.2-0.2,0.3-0.2,0.4,0
		c-0.4,0.4-0.8,0.8-1.1,1.2c-0.2,0.2-0.4,0.4-0.7,0.6c-0.2,0.2-0.5,0.3-0.8,0.1c-0.1,0-0.2-0.1-0.3-0.1c-0.1-0.1-0.2-0.1-0.3,0
		c-0.1,0.1-0.2,0.2-0.3,0.3c-0.1,0.1-0.1,0.1-0.1,0.2c0,0,0,0.1-0.1,0.1c-0.1,0.1-0.2,0.2-0.3,0.2c-0.7,0.7-1.3,1.3-2,2
		c-0.1,0.1-0.3,0.1-0.5-0.1c-0.2-0.2-0.2-0.3-0.1-0.5c0.7-0.7,1.4-1.4,2.2-2c0,0,0.1-0.1,0.1-0.1c0.1-0.1,0.1-0.2,0.2-0.1
		c0,0,0.1,0,0.1,0c0.1-0.1,0.3-0.3,0.4-0.4c0,0,0-0.1,0-0.2c0,0,0-0.1,0-0.1c-0.3-0.6-0.2-0.8,0.2-1.2C38,33.4,38.6,32.9,39.2,32.4z
		"/>
	<g>
		<path fill="#FFFFFF" d="M11.9,35.9c-0.3-0.3-0.6-0.7-0.9-1c-0.2-0.3-0.5-0.6-0.7-0.9c-0.2-0.4-0.3-0.8-0.3-1.3
			c0-0.2,0.1-0.2,0.2-0.2c0.4,0,0.8,0,1.2,0.2c0.4,0.3,0.9,0.6,1.3,0.9c0.3,0.2,0.5,0.5,0.8,0.7c-0.3,0.2-0.5,0.3-0.8,0.5
			c0.2,0.2,0.4,0.5,0.6,0.6c0.3,0.1,0.4,0.3,0.6,0.5c0.2,0.1,0.4,0.3,0.6,0.5c0.4,0.4,0.9,0.9,1.3,1.3c0.1,0.1,0.1,0.2,0.1,0.4
			c-0.1,0.2-0.3,0.3-0.4,0.3c-0.1,0-0.1,0-0.1-0.1c-0.6-0.7-1.3-1.3-1.9-2c-0.1-0.1-0.2-0.2-0.3-0.3c0,0-0.1-0.1-0.1-0.1
			c0-0.1-0.1-0.2-0.1-0.3c-0.1-0.1-0.3-0.3-0.5-0.5C12.3,35.4,12.1,35.6,11.9,35.9z M11.1,33.5C11.1,33.5,11.1,33.5,11.1,33.5
			c0.3,0.5,0.7,1,1.2,1.3c0-0.1,0-0.2,0-0.2C11.9,34.2,11.5,33.8,11.1,33.5z"/>
		<path fill="#FFFFFF" d="M11.1,33.5c0.4,0.4,0.8,0.7,1.1,1.1c0,0,0,0.1,0,0.2C11.8,34.4,11.5,33.9,11.1,33.5
			C11.1,33.5,11.1,33.5,11.1,33.5z"/>
	</g>
	<path fill="#FFFFFF" d="M42.4,10.2L29.1,2.6c-1.2-0.7-2.7-1.1-4.1-1.1c-1.4,0-2.9,0.4-4.1,1.1L7.6,10.2c-2.5,1.5-4.1,4.2-4.1,7.1
		V19h0.9h0.9v-1.7c0-2.3,1.2-4.5,3.2-5.6l13.3-7.7c1-0.6,2.1-0.9,3.2-0.9s2.3,0.3,3.2,0.9l13.3,7.7c2,1.2,3.2,3.3,3.2,5.6V19h0.9
		h0.9v-1.7C46.5,14.4,44.9,11.7,42.4,10.2z"/>
	<path fill="#FFFFFF" d="M45.6,30.3h-0.9v2.3c0,2.3-1.2,4.5-3.2,5.6l-13.3,7.7c-1,0.6-2.1,0.9-3.2,0.9s-2.3-0.3-3.2-0.9L8.5,38.3
		c-2-1.2-3.2-3.3-3.2-5.6v-2.3H4.4H3.5v2.3c0,2.9,1.6,5.7,4.1,7.1l13.3,7.7c1.2,0.7,2.7,1.1,4.1,1.1c1.4,0,2.9-0.4,4.1-1.1l13.3-7.7
		c2.5-1.5,4.1-4.2,4.1-7.1v-2.3H45.6z"/>
	<g>
		<path fill="#FFFFFF" d="M34.4,22.5c-0.1,0-0.2,0-0.3,0.1c-0.1,0.1-0.1,0.2-0.2,0.4l-0.2,1.9h0.9l0.2-1.9c0-0.1,0-0.3-0.1-0.4
			C34.6,22.5,34.5,22.5,34.4,22.5z"/>
		<path fill="#FFFFFF" d="M24.6,22.5h-0.4L24,24.3h0.5c0.2,0,0.3-0.1,0.4-0.4l0.1-1.1c0-0.1,0-0.2-0.1-0.2
			C24.8,22.5,24.8,22.5,24.6,22.5z"/>
		<path fill="#FFFFFF" d="M10.5,22.5c-0.1,0-0.2,0-0.3,0.1C10,22.7,10,22.8,10,23l-0.2,1.9h0.9l0.2-1.9c0-0.1,0-0.3-0.1-0.4
			C10.7,22.5,10.6,22.5,10.5,22.5z"/>
		<path fill="#FFFFFF" d="M29.6,22.5h-0.3L28.9,27h0.3c0.1,0,0.3-0.1,0.4-0.2c0.1-0.1,0.2-0.2,0.2-0.4l0.3-3.5c0-0.1,0-0.3-0.1-0.4
			C29.9,22.5,29.8,22.5,29.6,22.5z"/>
		<path fill="#FFFFFF" d="M47.5,19.8h-45c-0.9,0-1.6,0.7-1.6,1.6v8.2l2.4,2.8v-2.8h43.5v2.8l2.4-2.8v-8.2
			C49.1,20.5,48.4,19.8,47.5,19.8z M6.4,27.1c-0.3,0.3-0.8,0.4-1.3,0.4H4.4L4.4,27H5c0.3,0,0.5-0.1,0.7-0.2C5.9,26.6,6,26.5,6,26.2
			c0-0.2-0.1-0.4-0.2-0.7l-1-1.4c-0.1-0.2-0.2-0.4-0.2-0.7c0-0.5,0.2-0.8,0.6-1.1C5.3,22.1,5.7,22,6.2,22h0.7l0,0.5H6.3
			c-0.2,0-0.4,0-0.5,0.1c-0.2,0.1-0.3,0.3-0.3,0.5c0,0.2,0.1,0.4,0.2,0.6l0.9,1.2c0.2,0.3,0.3,0.6,0.3,1C7,26.4,6.8,26.8,6.4,27.1z
			 M11.9,23.1l-0.3,3.6c0,0.2,0.1,0.3,0.2,0.3l0,0.5h-0.4c-0.2,0-0.4-0.1-0.6-0.2c-0.2-0.1-0.2-0.3-0.2-0.6l0.1-1.3H9.8l-0.2,2h-1
			L9,23.1c0-0.4,0.2-0.7,0.6-0.9c0.3-0.2,0.6-0.3,1-0.3c0.4,0,0.7,0.1,0.9,0.3C11.7,22.4,11.9,22.7,11.9,23.1z M16,22.5h-0.7l-0.4,5
			h-1l0.4-5h-0.7l0-0.5H16L16,22.5z M20.8,27l0,0.5h-0.4c-0.3,0-0.5-0.1-0.6-0.2c-0.3,0.1-0.5,0.2-0.9,0.2c-0.3,0-0.6-0.1-0.8-0.2
			c-0.3-0.2-0.4-0.4-0.4-0.7c0,0,0-0.1,0-0.1l0.3-3.9h-0.3l0-0.5H19l-0.4,4.4c0,0,0,0.1,0,0.1c0,0.3,0.1,0.5,0.4,0.5
			c0.1,0,0.3-0.1,0.4-0.2c0.1-0.1,0.1-0.2,0.1-0.4l0.4-4.4h1l-0.4,4.7c0,0,0,0,0,0.1C20.5,26.9,20.6,27,20.8,27z M25.8,25l0,0.1
			l-0.1,1.6c0,0,0,0,0,0.1c0,0.1,0.1,0.2,0.2,0.2l0,0.5h-0.4c-0.5,0-0.8-0.2-0.8-0.7c0,0,0-0.1,0-0.1l0.1-1.5c0,0,0,0,0-0.1
			c0-0.2-0.1-0.3-0.2-0.3H24l-0.2,2.7h-1l0.4-5h-0.3l0-0.5h1.8c0.3,0,0.6,0.1,0.8,0.2c0.3,0.2,0.4,0.4,0.4,0.7
			c0,0.8-0.1,1.3-0.4,1.5C25.7,24.6,25.8,24.8,25.8,25z M31.1,23.1l-0.3,3.2c0,0.3-0.2,0.6-0.4,0.8c-0.2,0.2-0.5,0.3-0.8,0.3h-1.7
			l0.4-5H28l0-0.5H30c0.3,0,0.6,0.1,0.8,0.3S31.1,22.8,31.1,23.1z M35.7,23.1l-0.3,3.6c0,0.2,0.1,0.3,0.2,0.3l0,0.5h-0.4
			c-0.2,0-0.4-0.1-0.6-0.2c-0.2-0.1-0.2-0.3-0.2-0.6l0.1-1.3h-0.9l-0.2,2h-1l0.4-4.3c0-0.4,0.2-0.7,0.6-0.9c0.3-0.2,0.6-0.3,1-0.3
			s0.7,0.1,0.9,0.3C35.6,22.4,35.8,22.7,35.7,23.1z M40.6,23.7c0,0.3-0.1,0.5-0.3,0.7c-0.2,0.2-0.4,0.3-0.8,0.4l-0.2,2.7h-1l0.2-2.7
			c-0.3-0.1-0.6-0.2-0.7-0.4c-0.2-0.2-0.2-0.5-0.2-0.7l0.1-1.2h-0.3l0-0.5h1.3l-0.2,1.9c0,0.1,0,0.3,0.1,0.4
			c0.1,0.1,0.2,0.1,0.3,0.1c0.1,0,0.3,0,0.4-0.1c0.1-0.1,0.2-0.2,0.2-0.4l0.2-1.9h1L40.6,23.7z M44.3,27.1c-0.3,0.3-0.8,0.4-1.3,0.4
			h-0.7l0.1-0.5H43c0.3,0,0.5-0.1,0.7-0.2c0.2-0.1,0.2-0.3,0.2-0.5c0-0.2-0.1-0.4-0.2-0.7l-1-1.4c-0.1-0.2-0.2-0.4-0.2-0.7
			c0-0.5,0.2-0.8,0.6-1.1c0.3-0.2,0.7-0.4,1.1-0.4h0.7l0,0.5h-0.5c-0.2,0-0.4,0-0.5,0.1c-0.2,0.1-0.3,0.3-0.3,0.5
			c0,0.2,0.1,0.4,0.2,0.6l0.9,1.2c0.2,0.3,0.3,0.6,0.3,1C44.9,26.4,44.7,26.8,44.3,27.1z"/>
	</g>
	<g>
		<path fill="#FFFFFF" d="M12.7,12.6l0,0.2h-0.5c-0.1,0-0.1,0-0.2,0.1c-0.1,0-0.1,0.1-0.1,0.2l-0.1,0.7h0.6l0,0.2h-0.6l-0.1,0.7
			c0,0.1,0,0.1,0.1,0.2c0,0,0.1,0.1,0.2,0.1h0.5l0,0.2h-0.6c-0.1,0-0.3-0.1-0.4-0.2c-0.1-0.1-0.1-0.2-0.1-0.4l0.1-1.5
			c0-0.1,0.1-0.3,0.2-0.4c0.1-0.1,0.2-0.2,0.4-0.2H12.7z"/>
		<path fill="#FFFFFF" d="M14.2,12.6l0,0.2h-0.2c-0.1,0-0.2,0-0.2,0c-0.1,0.1-0.1,0.1-0.1,0.2c0,0.1,0,0.2,0.1,0.3l0.4,0.6
			c0.1,0.1,0.2,0.3,0.2,0.5c0,0.2-0.1,0.4-0.3,0.6c-0.2,0.1-0.4,0.2-0.6,0.2H13l0-0.2h0.3c0.1,0,0.2,0,0.3-0.1
			c0.1-0.1,0.1-0.1,0.1-0.2c0-0.1,0-0.2-0.1-0.3l-0.5-0.7c-0.1-0.1-0.1-0.2-0.1-0.3c0-0.2,0.1-0.4,0.3-0.5c0.1-0.1,0.3-0.2,0.5-0.2
			H14.2z"/>
		<path fill="#FFFFFF" d="M16,12.6l0,0.2h-0.3l-0.2,2.3H15l0.2-2.3h-0.3l0-0.2H16z"/>
		<path fill="#FFFFFF" d="M16.4,15c0,0.1,0,0.1-0.1,0.1c0,0-0.1,0.1-0.2,0.1c-0.1,0-0.1,0-0.1-0.1c0,0-0.1-0.1-0.1-0.1
			c0-0.1,0-0.1,0.1-0.2c0,0,0.1-0.1,0.2-0.1c0.1,0,0.1,0,0.2,0.1S16.4,14.9,16.4,15z"/>
	</g>
	<g>
		<path fill="#FFFFFF" d="M34.1,13.3c0,0.2-0.1,0.4-0.3,0.6l-0.5,0.5h0.6l0,0.2h-1.1l0-0.2l0.7-0.7c0.1-0.1,0.2-0.2,0.1-0.4
			c0-0.1-0.1-0.2-0.2-0.2c-0.1,0-0.1,0-0.2,0.1c-0.1,0-0.1,0.1-0.1,0.2l0,0.1h-0.2l0-0.1c0-0.2,0.1-0.3,0.2-0.4
			c0.1-0.1,0.2-0.1,0.4-0.1c0.2,0,0.3,0,0.4,0.1C34,13.1,34.1,13.2,34.1,13.3z"/>
		<path fill="#FFFFFF" d="M35.9,13.4l-0.1,0.8c0,0.1-0.1,0.3-0.2,0.3c-0.1,0.1-0.3,0.1-0.4,0.1h-0.1c-0.2,0-0.3,0-0.4-0.1
			c-0.1-0.1-0.2-0.2-0.2-0.4l0.1-0.8c0-0.2,0.1-0.3,0.2-0.4c0.1-0.1,0.3-0.1,0.4-0.1h0.1c0.2,0,0.3,0,0.4,0.1
			C35.8,13.1,35.9,13.3,35.9,13.4z M35.4,13.4c0-0.1,0-0.1,0-0.2c0,0-0.1-0.1-0.1-0.1c-0.1,0-0.1,0-0.1,0.1c0,0-0.1,0.1-0.1,0.2
			L35,14.2c0,0.1,0,0.2,0,0.2c0,0,0.1,0.1,0.1,0.1c0,0,0.1,0,0.1-0.1c0,0,0.1-0.1,0.1-0.2L35.4,13.4z"/>
		<path fill="#FFFFFF" d="M37.1,14.4l0,0.2h-0.8l0-0.2h0.2l0.1-1.3h-0.2l0-0.2H37l-0.1,1.5H37.1z"/>
		<path fill="#FFFFFF" d="M38.7,12.9l0,0.2h-0.5l0,0.6c0.2,0,0.3,0,0.4,0.1c0.1,0.1,0.2,0.2,0.2,0.4l-0.1,0.6c0,0.1-0.1,0.3-0.2,0.3
			c-0.1,0.1-0.3,0.1-0.4,0.1h-0.1c-0.1,0-0.2,0-0.3-0.1c-0.1-0.1-0.1-0.2-0.1-0.3h0.2c0,0.1,0,0.1,0.1,0.2c0,0.1,0.1,0.1,0.2,0.1
			c0.1,0,0.2-0.1,0.2-0.3l0.1-0.6c0-0.1,0-0.2-0.1-0.2h-0.5l0.1-1.1H38.7z"/>
	</g>
	<g>
		<path fill="#FFFFFF" d="M22.4,15.5l0,0.2h-0.5c0,0-0.1,0-0.1,0.1c0,0-0.1,0.1-0.1,0.1l-0.1,1.6c0,0.1,0,0.2,0.1,0.2
			c0,0,0.1,0.1,0.2,0.1c0.1,0,0.1,0,0.2-0.1c0.1,0,0.1-0.1,0.1-0.2h0.2c0,0.1-0.1,0.3-0.2,0.3C22,18,21.9,18,21.8,18
			c-0.1,0-0.2,0-0.2,0c-0.1,0-0.2-0.1-0.3-0.2c-0.1-0.1-0.1-0.2-0.1-0.3l0.1-1.6c0-0.2,0.1-0.3,0.2-0.4c0.1-0.1,0.2-0.1,0.4-0.1
			H22.4z"/>
		<path fill="#FFFFFF" d="M23.9,17.8l0,0.2h-0.2c-0.2,0-0.3,0-0.4-0.1C23.3,18,23.2,18,23,18H23c-0.2,0-0.3,0-0.4-0.1
			c-0.1-0.1-0.2-0.2-0.2-0.4l0.1-0.8c0-0.2,0.1-0.3,0.2-0.4c0.1-0.1,0.3-0.1,0.4-0.1h0.8l-0.1,1.4C23.8,17.7,23.8,17.8,23.9,17.8z
			 M23.4,16.5h-0.3c-0.1,0-0.2,0.1-0.2,0.2l-0.1,0.9c0,0.2,0.1,0.2,0.2,0.2c0.1,0,0.1,0,0.2-0.1s0.1-0.1,0.1-0.2L23.4,16.5z"/>
		<path fill="#FFFFFF" d="M25.3,16.3l0,0.2h-0.5c0,0-0.1,0-0.1,0.1c0,0,0,0.1-0.1,0.1l-0.1,0.9c0,0.1,0,0.1,0.1,0.1
			c0,0,0.1,0.1,0.1,0.1c0.1,0,0.1,0,0.2-0.1c0.1-0.1,0.1-0.1,0.1-0.2h0.2c0,0.1-0.1,0.3-0.2,0.3C25,18,24.8,18,24.7,18h-0.1
			c-0.2,0-0.3,0-0.4-0.1c-0.1-0.1-0.2-0.2-0.2-0.3c0,0,0,0,0,0l0.1-0.8c0-0.2,0.1-0.3,0.2-0.4c0.1-0.1,0.3-0.1,0.4-0.1H25.3z"/>
		<path fill="#FFFFFF" d="M26.3,16.3l0,0.2h-0.2L26,17.6c0,0.1,0,0.2,0.1,0.2l0,0.2h-0.2c-0.1,0-0.2,0-0.3-0.1
			c-0.1-0.1-0.1-0.2-0.1-0.3l0.1-1.1h-0.2l0-0.2h0.2l0-0.4h0.5l0,0.4H26.3z"/>
		<path fill="#FFFFFF" d="M27.8,17.8l0,0.2h-0.8c-0.2,0-0.3,0-0.4-0.1c-0.1-0.1-0.2-0.2-0.1-0.4l0.1-1h-0.1l0-0.2h0.6l-0.1,1.3
			c0,0.1,0,0.1,0,0.2c0,0,0.1,0.1,0.1,0.1h0.2l0.1-1.5h0.5l-0.1,1.5H27.8z"/>
		<path fill="#FFFFFF" d="M28.8,17.9C28.7,18,28.5,18,28.4,18h-0.6l0-0.2h0.4c0.1,0,0.2-0.1,0.2-0.2c0-0.1,0-0.1-0.1-0.2l-0.3-0.3
			c-0.1-0.1-0.1-0.2-0.1-0.3c0-0.2,0.1-0.3,0.2-0.4c0.1-0.1,0.2-0.1,0.4-0.1h0.4l0,0.2h-0.3c-0.1,0-0.2,0-0.2,0.1c0,0,0,0.1,0,0.1
			l0.3,0.4c0.1,0.1,0.2,0.3,0.2,0.4C29,17.7,28.9,17.8,28.8,17.9z"/>
	</g>
	<g>
		<path fill="#FFFFFF" d="M26,31.8l0,0.2h-0.4l-0.1,0.9l0.2,0.4h0.2l0,0.2h-0.5l-0.1-0.1c-0.1,0.1-0.3,0.1-0.5,0.1
			c-0.2,0-0.4-0.1-0.5-0.2v0c-0.1-0.1-0.1-0.2-0.1-0.3c0,0,0,0,0,0l0.1-0.8c0-0.1,0.1-0.3,0.2-0.4c-0.1-0.1-0.1-0.2-0.1-0.2
			c0-0.1,0-0.1,0-0.2c0-0.2,0.1-0.3,0.2-0.4c0.1-0.1,0.3-0.1,0.4-0.1h0.7l0,0.2H25c-0.2,0-0.3,0.1-0.3,0.3c0,0.1,0,0.1,0,0.2
			l0.3,0.5l0-0.4H26z M25,33l-0.3-0.6l-0.1,0.7c0,0,0,0,0,0c0,0.1,0.1,0.2,0.2,0.2c0.1,0,0.1,0,0.1-0.1C25,33.2,25,33.1,25,33L25,33
			z"/>
		<path fill="#FFFFFF" d="M19.8,34l0,0.2h-0.2c-0.1,0-0.2,0-0.2,0c-0.1,0.1-0.1,0.1-0.1,0.2c0,0.1,0,0.2,0.1,0.3l0.4,0.6
			c0.1,0.1,0.2,0.3,0.2,0.5c0,0.2-0.1,0.4-0.3,0.6c-0.2,0.1-0.4,0.2-0.6,0.2h-0.3l0-0.2h0.3c0.1,0,0.2,0,0.3-0.1
			c0.1-0.1,0.1-0.1,0.1-0.2c0-0.1,0-0.2-0.1-0.3L18.8,35c-0.1-0.1-0.1-0.2-0.1-0.3c0-0.2,0.1-0.4,0.3-0.5c0.1-0.1,0.3-0.2,0.5-0.2
			H19.8z"/>
		<path fill="#FFFFFF" d="M21.4,36.3l0,0.2h-0.8c-0.2,0-0.3,0-0.4-0.1C20.1,36.3,20,36.2,20,36l0.1-1H20l0-0.2h0.6l-0.1,1.3
			c0,0.1,0,0.1,0,0.2c0,0,0.1,0.1,0.1,0.1h0.2l0.1-1.5h0.5l-0.1,1.5H21.4z"/>
		<path fill="#FFFFFF" d="M22.8,34.8l0,0.2h-0.5c0,0-0.1,0-0.1,0.1c0,0,0,0.1-0.1,0.1L22,36.1c0,0.1,0,0.1,0.1,0.1
			c0,0,0.1,0.1,0.1,0.1c0.1,0,0.1,0,0.2-0.1c0.1-0.1,0.1-0.1,0.1-0.2h0.2c0,0.1-0.1,0.3-0.2,0.3c-0.1,0.1-0.2,0.1-0.4,0.1h-0.1
			c-0.2,0-0.3,0-0.4-0.1c-0.1-0.1-0.2-0.2-0.2-0.3c0,0,0,0,0,0l0.1-0.8c0-0.2,0.1-0.3,0.2-0.4c0.1-0.1,0.3-0.1,0.4-0.1H22.8z"/>
		<path fill="#FFFFFF" d="M24,34.8l0,0.2h-0.5c0,0-0.1,0-0.1,0.1c0,0,0,0.1-0.1,0.1l-0.1,0.9c0,0.1,0,0.1,0.1,0.1
			c0,0,0.1,0.1,0.1,0.1c0.1,0,0.1,0,0.2-0.1c0.1-0.1,0.1-0.1,0.1-0.2H24c0,0.1-0.1,0.3-0.2,0.3c-0.1,0.1-0.2,0.1-0.4,0.1h-0.1
			c-0.2,0-0.3,0-0.4-0.1c-0.1-0.1-0.2-0.2-0.2-0.3c0,0,0,0,0,0l0.1-0.8c0-0.2,0.1-0.3,0.2-0.4c0.1-0.1,0.3-0.1,0.4-0.1H24z"/>
		<path fill="#FFFFFF" d="M25.6,36.3l0,0.2h-0.8c-0.2,0-0.3,0-0.4-0.1c-0.1-0.1-0.2-0.2-0.1-0.4l0.1-1h-0.1l0-0.2h0.6l-0.1,1.3
			c0,0.1,0,0.1,0,0.2c0,0,0.1,0.1,0.1,0.1H25l0.1-1.5h0.5l-0.1,1.5H25.6z"/>
		<path fill="#FFFFFF" d="M26.5,34l-0.2,2.1c0,0.1,0,0.2,0.1,0.2l0,0.2h-0.1c-0.2,0-0.3,0-0.4-0.1c-0.1-0.1-0.1-0.2-0.1-0.3l0.2-1.9
			h-0.1l0-0.2H26.5z"/>
		<path fill="#FFFFFF" d="M27.8,35.3h-0.2c0-0.1,0-0.1-0.1-0.2c0,0-0.1-0.1-0.2-0.1c-0.1,0-0.2,0-0.2,0.1c0,0.1-0.1,0.1-0.1,0.2
			c0,0.1,0.1,0.2,0.2,0.2h0.4l0,0.2h-0.4c-0.1,0-0.1,0-0.2,0.1c0,0.1-0.1,0.1-0.1,0.2c0,0.1,0,0.1,0.1,0.2c0,0,0.1,0.1,0.2,0.1
			c0.1,0,0.1,0,0.2-0.1c0.1,0,0.1-0.1,0.1-0.2h0.2c0,0.2-0.1,0.3-0.2,0.4c-0.1,0.1-0.2,0.1-0.4,0.1c-0.2,0-0.3,0-0.4-0.1
			c-0.1-0.1-0.2-0.2-0.2-0.4c0-0.2,0.1-0.3,0.2-0.4c-0.1-0.1-0.2-0.3-0.2-0.4c0-0.2,0.1-0.3,0.2-0.4c0.1-0.1,0.3-0.1,0.4-0.1
			c0.2,0,0.3,0,0.4,0.1C27.8,35,27.8,35.1,27.8,35.3z"/>
		<path fill="#FFFFFF" d="M29.4,36.3l0,0.2h-0.2c-0.1,0-0.2,0-0.3-0.1c-0.1-0.1-0.1-0.2-0.1-0.3l0.1-1c0-0.1,0-0.1,0-0.1
			c0,0-0.1-0.1-0.1-0.1h-0.2l-0.1,1.5h-0.5L28,35h-0.1l0-0.2h0.8c0.2,0,0.3,0,0.4,0.1c0.1,0.1,0.2,0.2,0.2,0.4l-0.1,0.9
			c0,0.1,0,0.1,0,0.1C29.3,36.3,29.3,36.3,29.4,36.3z"/>
		<path fill="#FFFFFF" d="M30.4,34.8l0,0.2h-0.2l-0.1,1.1c0,0.1,0,0.2,0.1,0.2l0,0.2h-0.2c-0.1,0-0.2,0-0.3-0.1
			c-0.1-0.1-0.1-0.2-0.1-0.3l0.1-1.1h-0.2l0-0.2h0.2l0-0.4h0.5l0,0.4H30.4z"/>
		<path fill="#FFFFFF" d="M31.3,36.4c-0.1,0.1-0.3,0.1-0.4,0.1h-0.6l0-0.2h0.4c0.1,0,0.2-0.1,0.2-0.2c0-0.1,0-0.1-0.1-0.2l-0.3-0.3
			c-0.1-0.1-0.1-0.2-0.1-0.3c0-0.2,0.1-0.3,0.2-0.4c0.1-0.1,0.2-0.1,0.4-0.1h0.4l0,0.2h-0.3c-0.1,0-0.2,0-0.2,0.1c0,0,0,0.1,0,0.1
			l0.3,0.4c0.1,0.1,0.2,0.3,0.2,0.4C31.5,36.2,31.5,36.3,31.3,36.4z"/>
	</g>
	<path fill="#FFFFFF" d="M26.9,9.4c-0.3-0.3-0.7-0.5-1.1-0.7l-0.5-1.3l-0.4,0l-0.9,2l0.4,0l0.1-0.4c0.1,0,0.3,0,0.4,0
		c0.2,0,0.3,0,0.4,0l0.1,0.4l0.4,0L26,9.4c0.2,0.1,0.4,0.3,0.6,0.5c-0.4,0.4-0.9,0.7-1.6,0.7c-0.6,0-1.2-0.3-1.6-0.7
		c-0.1-0.1-0.2-0.2-0.3-0.4c-0.2-0.3-0.3-0.6-0.3-1c0-1.2,0.9-2.1,2.1-2.1c1.2,0,2.1,0.9,2.1,2.1c0,0.2,0,0.4-0.1,0.6c0,0,0,0,0,0
		l0.4,0.3c0,0,0,0,0,0c0.1-0.3,0.2-0.6,0.2-1c0-1.4-1.1-2.6-2.6-2.6c-1.4,0-2.6,1.1-2.6,2.6c0,0.5,0.2,1,0.4,1.4
		c0.1,0.1,0.2,0.3,0.3,0.4c0.4,0.4,1,0.7,1.6,0.8l0,1.5l0.4,0l0-1.5c0.6-0.1,1.2-0.3,1.6-0.8c0.2,0.3,0.3,0.6,0.3,1
		c0,1.2-0.9,2.1-2.1,2.1c-1.2,0-2.1-0.9-2.1-2.1c0-0.2,0-0.4,0.1-0.7c0,0,0,0,0,0l-0.4-0.3c0,0,0,0,0,0c-0.1,0.3-0.2,0.6-0.2,1
		c0,1.4,1.1,2.6,2.6,2.6c1.4,0,2.6-1.1,2.6-2.6c0-0.5-0.2-1-0.4-1.4C27.1,9.7,27,9.6,26.9,9.4z M25.1,8L25.1,8C25.1,8,25.1,8,25.1,8
		L25.1,8c0,0,0.1,0.1,0.3,0.7c-0.1,0-0.2,0-0.3,0c-0.1,0-0.2,0-0.3,0C25,8.2,25,8,25.1,8z"/>
	<path fill="#FFFFFF" d="M29.6,40.9c-0.1-0.1-0.5-0.1-0.9,0.2c0.4-1,0.5-1.8,0.1-2.1c-0.1-0.1-0.2-0.1-0.3-0.1
		c-0.4,0-0.8,0.3-1.3,0.8c0-0.4-0.1-0.7-0.2-0.8c-0.2-0.1-0.5,0.2-0.8,0.7c-0.2-0.9-0.6-1.5-1-1.5c-0.5,0-0.9,0.7-1.1,1.7
		c-0.3-0.6-0.6-1-0.9-0.9c-0.2,0-0.3,0.3-0.3,0.7c-0.4-0.4-0.8-0.6-1.1-0.6c-0.1,0-0.2,0-0.3,0.1c-0.3,0.2-0.4,0.6-0.3,1.1
		c0.1,0.3,0.2,0.7,0.3,1c-0.5-0.3-0.9-0.5-1.1-0.3c-0.2,0.2,0,0.7,0.4,1.2h8.3C29.6,41.6,29.7,41.1,29.6,40.9z"/>
	<g>
		<polygon fill="#FFFFFF" points="20.2,42.5 21.1,46.8 25,47.9 28.7,46.8 29.8,42.5 		"/>
	</g>
</g>
</svg>
