<?xml version="1.0" encoding="utf-8"?>
<!-- Generator: Adobe Illustrator 18.0.0, SVG Export Plug-In . SVG Version: 6.00 Build 0)  -->
<svg version="1.2" baseProfile="tiny" id="圖層_1"
	 xmlns="http://www.w3.org/2000/svg" xmlns:xlink="http://www.w3.org/1999/xlink" x="0px" y="0px" viewBox="0 0 198.4 198.4"
	 xml:space="preserve">
<path d="M156.7,128.7c0.7,0.7,0.7,1.1,0,1.7c-1.7,1.7-3.5,3.3-5.3,5c-0.2,0.2-0.4,0.4-0.4,0.6c0,0.4,0.1,0.9,0.4,1.1
	c0.4,0.4,0.9,0.2,1.3-0.1c1.7-1.5,3.5-3,5.2-4.5c0.3-0.3,0.6-0.6,0.9-0.7c0.2-0.1,0.7-0.2,0.8-0.1c0.1,0.2,0.1,0.6,0.1,0.9
	c0,0.1-0.2,0.2-0.3,0.4c-1.8,1.8-3.5,3.6-5.3,5.4c-0.5,0.5-0.6,1.2-0.2,1.6c0.4,0.4,1.1,0.4,1.6-0.1c1.8-1.7,3.5-3.3,5.3-5
	c0.7-0.6,1.2-0.6,1.7,0.1c-1.5,1.6-3.1,3.3-4.6,4.9c-0.8,0.9-1.8,1.7-2.6,2.5c-1,0.9-2.1,1-3.2,0.6c-0.4-0.2-0.8-0.3-1.2-0.6
	c-0.6-0.5-1-0.3-1.4,0.2c-0.3,0.4-0.7,0.7-1.1,1c-0.3,0.2-0.6,0.4-0.4,0.9c0,0.1-0.2,0.4-0.3,0.5c-0.3,0.3-0.7,0.6-1.1,1
	c-2.7,2.6-5.4,5.3-8.1,7.9c-0.6,0.5-1.3,0.4-1.9-0.3c-0.6-0.7-0.8-1.4-0.2-1.9c2.8-2.9,5.7-5.6,8.8-8c0.2-0.1,0.4-0.3,0.5-0.5
	c0.2-0.4,0.4-0.7,1-0.5c0.1,0,0.3-0.1,0.4-0.2c0.6-0.5,1.2-1,1.7-1.6c0.1-0.1,0.1-0.5,0.1-0.7c0-0.1-0.1-0.2-0.2-0.4
	c-1.1-2.3-1-3.2,0.9-4.9C151.8,132.9,154.3,130.8,156.7,128.7z"/>
<g>
	<path d="M46.7,142.9c-1.2-1.4-2.4-2.7-3.6-4.1c-1-1.2-1.9-2.4-2.6-3.8c-0.9-1.6-1.4-3.4-1.1-5.3c0.1-0.6,0.4-0.9,1-1
		c1.7-0.1,3.4,0,4.8,0.9c1.8,1.1,3.4,2.3,5.1,3.5c1.1,0.9,2.2,1.9,3.3,2.9c-1.1,0.7-2.2,1.4-3.4,2.1c0.9,0.9,1.5,1.9,2.4,2.3
		c1.1,0.4,1.6,1.4,2.4,2c0.9,0.6,1.7,1.4,2.5,2.2c1.7,1.7,3.4,3.5,5.1,5.2c0.4,0.4,0.6,0.9,0.3,1.5c-0.3,0.7-1.2,1.2-1.8,1.1
		c-0.2,0-0.4-0.2-0.6-0.3c-2.6-2.6-5.1-5.3-7.7-7.9c-0.4-0.4-0.9-0.9-1.3-1.3c-0.1-0.1-0.3-0.3-0.3-0.5c0.2-0.6-0.3-0.8-0.6-1.1
		c-0.6-0.6-1.2-1.2-1.8-1.8C48.1,140.7,47.4,141.8,46.7,142.9z M43.5,133.1c0,0-0.1,0.1-0.1,0.1c1.5,1.8,2.9,3.7,4.8,5.3
		c0-0.3,0-0.7-0.1-0.9C46.5,136.1,45,134.6,43.5,133.1z"/>
	<path d="M43.5,133.1c1.5,1.5,3,3,4.5,4.5c0.2,0.2,0.2,0.5,0.1,0.9c-1.9-1.5-3.3-3.4-4.8-5.3C43.4,133.1,43.4,133.1,43.5,133.1z"/>
</g>
<path fill="#040000" d="M169.3,39.5L115.9,8.6c-5-2.9-10.7-4.4-16.5-4.4c-5.8,0-11.5,1.5-16.5,4.4L29.3,39.5
	c-10.2,5.9-16.5,16.9-16.5,28.6V75h3.5h3.5v-6.9c0-9.3,5-17.9,13-22.6l53.4-30.9c4-2.3,8.5-3.5,13-3.5s9.1,1.2,13,3.5l53.4,30.9
	c8,4.6,13,13.3,13,22.6V75h3.5h3.5v-6.9C185.9,56.4,179.5,45.4,169.3,39.5z"/>
<path fill="#040000" d="M182.4,120.5h-3.5v9.4c0,9.3-5,17.9-13,22.6l-53.4,30.9c-4,2.3-8.5,3.5-13,3.5s-9.1-1.2-13-3.5l-53.4-30.9
	c-8-4.6-13-13.3-13-22.6v-9.4h-3.5h-3.5v9.4c0,11.8,6.3,22.8,16.5,28.6l53.4,30.9c5,2.9,10.7,4.4,16.5,4.4c5.8,0,11.5-1.5,16.5-4.4
	l53.4-30.9c10.2-5.9,16.5-16.9,16.5-28.6v-9.4H182.4z"/>
<g>
	<path fill="#040000" d="M137,88.8c-0.5,0-1,0.2-1.3,0.6c-0.4,0.4-0.6,0.9-0.6,1.5l-0.7,7.8h3.6l0.7-7.8c0.1-0.6-0.1-1.1-0.4-1.5
		C138,89,137.5,88.8,137,88.8z"/>
	<path fill="#040000" d="M97.9,88.8h-1.8l-0.7,7.4h2c0.9,0,1.3-0.5,1.4-1.5l0.4-4.5c0-0.4-0.1-0.7-0.4-1
		C98.7,89,98.3,88.8,97.9,88.8z"/>
	<path fill="#040000" d="M40.8,88.8c-0.5,0-1,0.2-1.4,0.6c-0.4,0.4-0.6,0.9-0.6,1.5l-0.7,7.8h3.6l0.7-7.8c0.1-0.6-0.1-1.1-0.4-1.5
		C41.8,89,41.4,88.8,40.8,88.8z"/>
	<path fill="#040000" d="M117.9,88.8h-1.3l-1.6,18.1h1.3c0.6,0,1.1-0.2,1.5-0.6c0.4-0.4,0.7-0.9,0.8-1.5l1.2-14
		c0.1-0.6-0.1-1-0.5-1.5C119,89,118.5,88.8,117.9,88.8z"/>
	<path fill="#040000" d="M189.9,78H8.8c-3.6,0-6.6,2.9-6.6,6.6v33.2l9.6,11.2v-11.2h175V129l9.6-11.2V84.6
		C196.5,80.9,193.5,78,189.9,78z M24.4,107.3c-1.3,1.1-3.1,1.6-5.2,1.6h-3l0.2-2H19c1.2,0,2.1-0.3,2.7-0.8c0.6-0.5,1-1.3,1-2.1
		c0-0.9-0.3-1.8-1-2.7l-4.1-5.7c-0.6-0.8-0.9-1.7-0.9-2.8c0-1.8,0.7-3.3,2.2-4.5c1.2-1,2.8-1.5,4.6-1.5h2.6l-0.2,2H24
		c-1,0-1.7,0.1-2.1,0.4c-0.8,0.5-1.1,1.2-1.1,2c0,0.8,0.3,1.6,0.9,2.3l3.7,4.8c0.9,1.2,1.4,2.5,1.4,4
		C26.7,104.5,25.9,106.1,24.4,107.3z M46.4,91.5l-1.3,14.3c-0.1,0.7,0.2,1.1,0.9,1.1l-0.2,2h-1.6c-1,0-1.8-0.2-2.3-0.8
		c-0.6-0.6-0.9-1.3-0.8-2.4l0.5-5.1h-3.6l-0.7,8.2h-4l1.5-17.5c0.1-1.6,0.9-2.8,2.3-3.6c1.1-0.7,2.4-1,3.9-1c1.5,0,2.7,0.3,3.8,1
		C46,88.7,46.5,89.9,46.4,91.5z M63.1,88.8h-2.9l-1.7,20.1h-4l1.8-20.1h-2.9l0.2-2h9.8L63.1,88.8z M82.4,106.9l-0.2,2h-1.8
		c-1.1,0-2-0.3-2.6-0.9c-1.1,0.6-2.2,0.9-3.5,0.9c-1.3,0-2.4-0.3-3.3-1c-1-0.7-1.6-1.7-1.6-3c0-0.1,0-0.2,0-0.3l1.4-15.8h-1.1l0.2-2
		h5.1l-1.5,17.6c0,0.1,0,0.2,0,0.3c0,1.3,0.5,2,1.6,2c0.6,0,1.1-0.3,1.4-0.8c0.3-0.5,0.5-1,0.6-1.6l1.5-17.6h4l-1.6,18.8
		c0,0.1,0,0.2,0,0.3C81.2,106.6,81.6,106.9,82.4,106.9z M102.5,99l0,0.5l-0.5,6.3c0,0.1,0,0.2,0,0.2c0,0.6,0.3,0.9,1,0.9l-0.2,2H101
		c-2.1,0-3.1-0.9-3.1-2.8c0-0.1,0-0.2,0-0.4l0.5-6.2c0-0.1,0-0.2,0-0.3c0-0.7-0.3-1.1-1-1.1h-2.2l-0.9,10.7h-4l1.7-20.1H91l0.2-2
		h7.2c1.4,0,2.5,0.3,3.4,0.9c1,0.7,1.5,1.7,1.5,3c0,3.1-0.6,5.1-1.7,6.2C102.2,97.4,102.5,98.1,102.5,99z M123.7,91.5l-1.1,12.8
		c-0.1,1.3-0.7,2.4-1.6,3.3c-1,0.9-2.1,1.4-3.4,1.4h-6.7l1.8-20.1h-1.2l0.2-2h7.8c1.3,0,2.3,0.5,3.2,1.4S123.9,90.2,123.7,91.5z
		 M142.6,91.5l-1.3,14.3c-0.1,0.7,0.2,1.1,0.9,1.1l-0.2,2h-1.6c-1,0-1.8-0.2-2.3-0.8c-0.6-0.6-0.9-1.3-0.8-2.4l0.4-5.1h-3.6
		l-0.7,8.2h-4l1.5-17.5c0.1-1.6,0.9-2.8,2.3-3.6c1.1-0.7,2.4-1,3.9-1s2.7,0.3,3.8,1C142.2,88.7,142.7,89.9,142.6,91.5z M162.1,93.7
		c-0.1,1.1-0.5,2.1-1.3,2.9c-0.8,0.8-1.8,1.4-3,1.6l-0.9,10.7h-4l0.9-10.7c-1.3-0.2-2.2-0.7-2.9-1.6s-1-1.8-0.9-3l0.4-4.9h-1.1
		l0.2-2h5.1l-0.7,7.5c0,0.6,0.1,1,0.5,1.4s0.8,0.6,1.4,0.6c0.6,0,1.1-0.2,1.5-0.6s0.7-0.9,0.7-1.4l0.6-7.5h4L162.1,93.7z
		 M177.1,107.3c-1.3,1.1-3.1,1.6-5.2,1.6h-3l0.2-2h2.6c1.2,0,2.1-0.3,2.7-0.8c0.6-0.5,1-1.3,1-2.1c0-0.9-0.3-1.8-1-2.7l-4.1-5.7
		c-0.6-0.8-0.9-1.7-0.9-2.8c0-1.8,0.7-3.3,2.2-4.5c1.2-1,2.8-1.5,4.6-1.5h2.6l-0.2,2h-1.9c-1,0-1.7,0.1-2.1,0.4
		c-0.8,0.5-1.1,1.2-1.1,2c0,0.8,0.3,1.6,0.9,2.3l3.7,4.8c0.9,1.2,1.4,2.5,1.4,4C179.5,104.5,178.7,106.1,177.1,107.3z"/>
</g>
<g>
	<path fill="#040000" d="M49.7,49.1l-0.1,0.9h-1.9c-0.3,0-0.5,0.1-0.7,0.3c-0.2,0.2-0.3,0.4-0.3,0.7l-0.2,2.8h2.3l-0.1,0.9h-2.4
		l-0.3,2.8c0,0.3,0,0.5,0.2,0.7c0.2,0.2,0.4,0.3,0.7,0.3h1.9l-0.1,0.9h-2.5c-0.6,0-1.1-0.2-1.5-0.6s-0.6-0.9-0.5-1.5l0.5-6
		c0.1-0.6,0.3-1.1,0.8-1.5c0.5-0.4,1-0.6,1.6-0.6H49.7z"/>
	<path fill="#040000" d="M55.7,49.1l-0.1,0.9h-0.9c-0.5,0-0.8,0.1-1,0.2c-0.4,0.2-0.5,0.5-0.5,0.9c0,0.4,0.1,0.7,0.4,1.1l1.7,2.2
		c0.4,0.5,0.6,1.2,0.6,1.9c0,1-0.4,1.7-1.1,2.3c-0.6,0.5-1.4,0.7-2.4,0.7h-1.4l0.1-0.9h1.2c0.6,0,1-0.1,1.3-0.4s0.4-0.6,0.4-1
		c0-0.4-0.2-0.8-0.5-1.3l-1.9-2.7c-0.3-0.4-0.4-0.8-0.4-1.3c0-0.9,0.3-1.6,1-2.1c0.6-0.5,1.3-0.7,2.1-0.7H55.7z"/>
	<path fill="#040000" d="M63,49.1l-0.1,0.9h-1.3l-0.8,9.4h-1.9l0.8-9.4h-1.3l0.1-0.9H63z"/>
	<path fill="#040000" d="M64.6,58.6c0,0.2-0.1,0.4-0.3,0.6s-0.4,0.3-0.6,0.3c-0.2,0-0.4-0.1-0.6-0.3s-0.3-0.4-0.3-0.6
		c0-0.2,0.1-0.4,0.2-0.6c0.2-0.2,0.4-0.3,0.6-0.3c0.2,0,0.4,0.1,0.6,0.3S64.6,58.4,64.6,58.6z"/>
</g>
<g>
	<path fill="#040000" d="M135.9,52.1c0,0.8-0.3,1.5-1,2.2l-2.1,2.2h2.5l-0.1,0.9h-4.6l0.1-0.9l2.9-3c0.5-0.5,0.7-1,0.6-1.5
		s-0.4-0.8-1-0.7c-0.3,0-0.5,0.1-0.7,0.3s-0.3,0.4-0.4,0.7l0,0.3h-0.9l0-0.3c0.1-0.6,0.3-1.1,0.8-1.5c0.4-0.3,1-0.5,1.6-0.5
		c0.6,0,1.1,0.1,1.5,0.4C135.7,51,135.9,51.5,135.9,52.1z"/>
	<path fill="#040000" d="M143,52.3l-0.3,3.1c0,0.6-0.3,1-0.8,1.4c-0.5,0.4-1.1,0.6-1.8,0.6h-0.3c-0.6,0-1.2-0.2-1.6-0.5
		c-0.5-0.4-0.7-0.9-0.7-1.5l0.3-3.1c0.1-0.6,0.4-1.1,0.9-1.5c0.5-0.3,1.1-0.5,1.7-0.5h0.3c0.6,0,1.2,0.2,1.6,0.5
		C142.9,51.2,143.1,51.7,143,52.3z M141.1,52.3c0-0.3,0-0.6-0.2-0.8c-0.1-0.2-0.3-0.3-0.5-0.3c-0.2,0-0.4,0.1-0.5,0.3
		c-0.2,0.2-0.3,0.5-0.3,0.8l-0.3,3.1c0,0.4,0,0.6,0.1,0.8s0.3,0.3,0.5,0.3c0.2,0,0.4-0.1,0.5-0.3s0.3-0.5,0.3-0.8L141.1,52.3z"/>
	<path fill="#040000" d="M148,56.5l-0.1,0.9h-3.4l0.1-0.9h0.8l0.5-5.2H145l0.1-0.9h2.7l-0.5,6.2H148z"/>
	<path fill="#040000" d="M154.5,50.3l-0.1,0.9h-2.1l-0.2,2.4c0.7,0,1.2,0.2,1.7,0.5c0.5,0.4,0.7,0.9,0.7,1.5l-0.2,2.3
		c0,0.6-0.3,1-0.8,1.4c-0.5,0.4-1.1,0.6-1.8,0.6h-0.3c-0.5,0-1-0.2-1.4-0.6c-0.4-0.4-0.5-0.9-0.5-1.4h0.9c0,0.3,0.1,0.5,0.3,0.7
		c0.2,0.2,0.4,0.3,0.7,0.3c0.6,0,0.9-0.4,1-1.1l0.2-2.5c0-0.6-0.1-0.8-0.5-0.8h-1.9l0.4-4.3H154.5z"/>
</g>
<g>
	<path fill="#040000" d="M89,60.6l-0.1,0.9h-2.2c-0.2,0-0.3,0.1-0.4,0.2c-0.1,0.2-0.2,0.4-0.2,0.6l-0.6,6.6c0,0.4,0,0.7,0.3,0.9
		c0.2,0.2,0.4,0.2,0.7,0.2c0.3,0,0.5-0.1,0.7-0.3s0.3-0.4,0.4-0.7h0.9c0,0.5-0.3,1-0.7,1.4c-0.4,0.4-0.9,0.6-1.5,0.6
		c-0.4,0-0.7,0-0.9,0c-0.5-0.1-1-0.3-1.3-0.6c-0.4-0.4-0.5-0.8-0.5-1.3l0.5-6.3c0.1-0.6,0.3-1.1,0.8-1.5c0.4-0.3,1-0.5,1.6-0.5H89z"
		/>
	<path fill="#040000" d="M95.1,70L95,70.9h-0.7c-0.7,0-1.1-0.2-1.4-0.6c-0.4,0.4-0.9,0.6-1.4,0.6h-0.3c-0.6,0-1.2-0.2-1.6-0.5
		c-0.5-0.4-0.7-0.9-0.7-1.5l0.3-3.1c0.1-0.6,0.4-1.1,0.9-1.5c0.5-0.3,1.1-0.5,1.7-0.5H95l-0.5,5.5C94.5,69.8,94.7,70,95.1,70z
		 M93.1,64.8h-1.3c-0.4,0-0.6,0.2-0.7,0.7l-0.3,3.6C90.7,69.7,91,70,91.6,70c0.3,0,0.5-0.1,0.8-0.3s0.4-0.5,0.4-0.7L93.1,64.8z"/>
	<path fill="#040000" d="M100.4,63.8l-0.1,0.9h-2c-0.2,0-0.3,0.1-0.4,0.3c-0.1,0.2-0.2,0.4-0.2,0.6l-0.3,3.7c0,0.2,0.1,0.4,0.2,0.5
		c0.2,0.1,0.4,0.2,0.6,0.2c0.3,0,0.5-0.1,0.8-0.3c0.2-0.2,0.4-0.5,0.4-0.7h0.9c0,0.5-0.3,1-0.7,1.4c-0.4,0.4-0.9,0.6-1.5,0.6h-0.3
		c-0.6,0-1.1-0.1-1.6-0.4c-0.5-0.3-0.7-0.8-0.7-1.4c0-0.1,0-0.1,0-0.2l0.3-3.1c0.1-0.6,0.4-1.1,0.9-1.5c0.5-0.3,1.1-0.5,1.7-0.5
		H100.4z"/>
	<path fill="#040000" d="M104.5,63.8l-0.1,0.9h-0.8l-0.4,4.4c0,0.5,0.1,0.7,0.6,0.8l-0.1,1H103c-0.5,0-1-0.1-1.3-0.4
		c-0.3-0.3-0.5-0.7-0.4-1.3l0.4-4.4H101l0.1-0.9h0.7l0.1-1.7h1.9l-0.2,1.7H104.5z"/>
	<path fill="#040000" d="M110.4,70l-0.1,0.9H107c-0.7,0-1.3-0.2-1.7-0.5c-0.4-0.4-0.6-0.9-0.6-1.6l0.3-4h-0.5l0.1-0.9h2.4l-0.4,5.2
		c0,0.3,0,0.5,0.1,0.7c0.1,0.2,0.3,0.3,0.5,0.3h0.7l0.5-6.2h1.9l-0.5,6.2H110.4z"/>
	<path fill="#040000" d="M114.6,70.4c-0.5,0.3-1,0.5-1.7,0.5h-2.2l0.1-0.9h1.5c0.6,0,0.9-0.3,0.9-0.8c0-0.3-0.1-0.6-0.3-0.8
		l-1.1-1.3c-0.4-0.4-0.5-0.9-0.5-1.4c0-0.6,0.3-1.1,0.8-1.4c0.4-0.3,1-0.5,1.6-0.5h1.5l-0.1,0.9h-1.1c-0.5,0-0.7,0.1-0.7,0.4
		c0,0.1,0.1,0.3,0.2,0.4l1.4,1.7c0.4,0.5,0.6,1.1,0.6,1.6C115.4,69.6,115.2,70.1,114.6,70.4z"/>
</g>
<g>
	<path fill="#040000" d="M103.2,126.3l-0.1,0.9h-1.4l-0.3,3.7l0.8,1.5h0.7l-0.1,0.9h-2.1l-0.3-0.5c-0.5,0.4-1.2,0.5-2,0.5
		c-0.8,0-1.4-0.2-1.8-0.7v0c-0.3-0.3-0.4-0.7-0.4-1.1c0-0.1,0-0.1,0-0.2l0.3-3.1c0-0.5,0.3-1,0.8-1.4c-0.2-0.4-0.4-0.7-0.4-0.8
		c-0.1-0.3-0.2-0.6-0.2-0.8c0-0.6,0.3-1.2,0.8-1.6c0.5-0.4,1-0.6,1.7-0.6h2.7l-0.1,0.9h-2.3c-0.7,0-1,0.3-1,1c0,0.3,0.1,0.5,0.2,0.8
		l1.1,2.1l0.1-1.7H103.2z M99.5,131.1l-1.3-2.4l-0.2,2.7c0,0.1,0,0.1,0,0.2c0,0.6,0.2,0.9,0.6,0.9c0.2,0,0.4-0.1,0.6-0.3
		c0.1-0.2,0.2-0.4,0.2-0.7L99.5,131.1z"/>
	<path fill="#040000" d="M78.2,135.1l-0.1,0.9h-0.9c-0.5,0-0.8,0.1-1,0.2c-0.4,0.2-0.5,0.5-0.5,0.9c0,0.4,0.1,0.7,0.4,1.1l1.7,2.2
		c0.4,0.5,0.6,1.2,0.6,1.9c0,1-0.4,1.7-1.1,2.3c-0.6,0.5-1.4,0.7-2.4,0.7h-1.4l0.1-0.9h1.2c0.6,0,1-0.1,1.3-0.4s0.4-0.6,0.4-1
		c0-0.4-0.2-0.8-0.5-1.3l-1.9-2.7c-0.3-0.4-0.4-0.8-0.4-1.3c0-0.9,0.3-1.6,1-2.1c0.6-0.5,1.3-0.7,2.1-0.7H78.2z"/>
	<path fill="#040000" d="M84.9,144.5l-0.1,0.9h-3.3c-0.7,0-1.3-0.2-1.7-0.5c-0.4-0.4-0.6-0.9-0.6-1.6l0.4-4h-0.5l0.1-0.9h2.4
		l-0.4,5.2c0,0.3,0,0.5,0.1,0.7c0.1,0.2,0.3,0.3,0.5,0.3h0.7l0.5-6.2h1.9l-0.5,6.2H84.9z"/>
	<path fill="#040000" d="M90.3,138.3l-0.1,0.9h-2c-0.2,0-0.3,0.1-0.4,0.3c-0.1,0.2-0.2,0.4-0.2,0.6l-0.3,3.7c0,0.2,0.1,0.4,0.2,0.5
		c0.2,0.1,0.4,0.2,0.6,0.2c0.3,0,0.5-0.1,0.8-0.3c0.2-0.2,0.4-0.5,0.4-0.7h0.9c0,0.5-0.3,1-0.7,1.4c-0.4,0.4-0.9,0.6-1.5,0.6h-0.3
		c-0.6,0-1.1-0.1-1.6-0.4c-0.5-0.3-0.7-0.8-0.7-1.4c0-0.1,0-0.1,0-0.2l0.3-3.1c0.1-0.6,0.4-1.1,0.9-1.5c0.5-0.3,1.1-0.5,1.7-0.5
		H90.3z"/>
	<path fill="#040000" d="M95.4,138.3l-0.1,0.9h-2c-0.2,0-0.3,0.1-0.4,0.3c-0.1,0.2-0.2,0.4-0.2,0.6l-0.3,3.7c0,0.2,0.1,0.4,0.2,0.5
		c0.2,0.1,0.4,0.2,0.6,0.2c0.3,0,0.5-0.1,0.8-0.3c0.2-0.2,0.4-0.5,0.4-0.7h0.9c0,0.5-0.3,1-0.7,1.4c-0.4,0.4-0.9,0.6-1.5,0.6h-0.3
		c-0.6,0-1.1-0.1-1.6-0.4c-0.5-0.3-0.7-0.8-0.7-1.4c0-0.1,0-0.1,0-0.2l0.3-3.1c0.1-0.6,0.4-1.1,0.9-1.5c0.5-0.3,1.1-0.5,1.7-0.5
		H95.4z"/>
	<path fill="#040000" d="M101.7,144.5l-0.1,0.9h-3.3c-0.7,0-1.3-0.2-1.7-0.5c-0.4-0.4-0.6-0.9-0.6-1.6l0.4-4h-0.5l0.1-0.9h2.4
		l-0.4,5.2c0,0.3,0,0.5,0.1,0.7c0.1,0.2,0.3,0.3,0.5,0.3h0.7l0.5-6.2h1.9l-0.5,6.2H101.7z"/>
	<path fill="#040000" d="M105.2,135.1l-0.7,8.6c0,0.5,0.1,0.8,0.6,0.8l-0.1,0.9h-0.3c-0.7,0-1.2-0.2-1.6-0.5
		c-0.4-0.3-0.5-0.7-0.5-1.3l0.7-7.6h-0.5l0.1-0.9H105.2z"/>
	<path fill="#040000" d="M110.6,140.3h-0.9c0-0.3,0-0.5-0.2-0.7c-0.2-0.2-0.4-0.3-0.6-0.3c-0.3,0-0.6,0.1-0.8,0.3
		c-0.2,0.3-0.3,0.6-0.3,0.9c0,0.6,0.2,0.9,0.7,0.9h1.7l-0.1,0.9h-1.7c-0.3,0-0.5,0.1-0.6,0.4c-0.2,0.2-0.2,0.5-0.2,0.8
		c0,0.3,0.1,0.5,0.2,0.7c0.2,0.2,0.4,0.3,0.7,0.3c0.3,0,0.5-0.1,0.7-0.3s0.3-0.4,0.4-0.7h0.9c-0.1,0.6-0.3,1.1-0.8,1.5
		c-0.4,0.3-1,0.5-1.6,0.5c-0.6,0-1.2-0.2-1.6-0.6c-0.5-0.4-0.7-0.9-0.7-1.4c0-0.7,0.4-1.2,1-1.6c-0.5-0.5-0.7-1-0.7-1.6
		c0.1-0.6,0.4-1.1,0.9-1.5c0.5-0.3,1.1-0.5,1.7-0.5c0.7,0,1.2,0.2,1.6,0.5C110.4,139.2,110.6,139.7,110.6,140.3z"/>
	<path fill="#040000" d="M117,144.5l-0.1,0.9h-0.8c-0.5,0-0.8-0.1-1.1-0.3c-0.3-0.3-0.5-0.6-0.4-1.1l0.3-3.9c0-0.2,0-0.4-0.1-0.6
		c-0.1-0.2-0.3-0.3-0.5-0.3h-0.8l-0.5,6.2H111l0.5-6.2H111l0.1-0.9h3.2c0.8,0,1.4,0.2,1.8,0.5c0.5,0.4,0.7,0.9,0.6,1.6l-0.3,3.5
		c0,0.3,0,0.4,0.1,0.5C116.6,144.5,116.7,144.5,117,144.5z"/>
	<path fill="#040000" d="M121.2,138.3l-0.1,0.9h-0.8l-0.4,4.4c0,0.5,0.1,0.7,0.6,0.8l-0.1,1h-0.7c-0.5,0-1-0.1-1.3-0.4
		c-0.3-0.3-0.5-0.7-0.4-1.3l0.4-4.4h-0.7l0.1-0.9h0.7l0.1-1.7h1.9l-0.2,1.7H121.2z"/>
	<path fill="#040000" d="M124.9,144.9c-0.5,0.3-1,0.5-1.7,0.5H121l0.1-0.9h1.5c0.6,0,0.9-0.3,0.9-0.8c0-0.3-0.1-0.6-0.3-0.8
		l-1.1-1.3c-0.4-0.4-0.5-0.9-0.5-1.4c0-0.6,0.3-1.1,0.8-1.4c0.4-0.3,1-0.5,1.6-0.5h1.5l-0.1,0.9h-1.1c-0.5,0-0.7,0.1-0.7,0.4
		c0,0.1,0.1,0.3,0.2,0.4l1.4,1.7c0.4,0.5,0.6,1.1,0.6,1.6C125.7,144.1,125.4,144.6,124.9,144.9z"/>
</g>
<path fill="#040000" d="M106.8,36.4c-1.2-1.2-2.7-2.2-4.4-2.7l-1.9-5.1l-1.7,0l-3.5,8.2l1.8,0l0.6-1.5c0.6-0.1,1.2-0.2,1.8-0.2
	c0.6,0,1.2,0.1,1.8,0.2l0.6,1.6l1.8,0l-0.3-0.9c0.9,0.5,1.7,1.1,2.4,1.9c-1.5,1.7-3.8,2.8-6.3,2.8s-4.7-1.1-6.3-2.8
	c-0.4-0.5-0.8-1-1.1-1.6c-0.7-1.2-1-2.6-1-4c0-4.6,3.8-8.4,8.4-8.4s8.4,3.8,8.4,8.4c0,0.9-0.1,1.7-0.4,2.5c0,0,0,0.1,0,0.1l1.5,1.4
	c0,0,0-0.1,0-0.1c0.5-1.2,0.8-2.5,0.8-3.9c0-5.7-4.6-10.3-10.3-10.3s-10.3,4.6-10.3,10.3c0,2.1,0.6,4,1.7,5.6
	c0.4,0.6,0.8,1.1,1.2,1.6c1.7,1.7,4,2.9,6.6,3.1l0,6.1l1.7,0l0-6.2c2.6-0.2,4.8-1.3,6.5-3.1c0.7,1.2,1,2.6,1,4
	c0,4.6-3.8,8.4-8.4,8.4s-8.4-3.8-8.4-8.4c0-0.9,0.1-1.8,0.4-2.6c0,0,0-0.1,0-0.1L90,39.4c0,0,0,0.1,0,0.1c-0.5,1.2-0.8,2.6-0.8,4
	c0,5.7,4.6,10.3,10.3,10.3s10.3-4.6,10.3-10.3c0-2.1-0.6-4-1.7-5.6C107.7,37.4,107.3,36.8,106.8,36.4z M99.5,30.6L99.5,30.6
	C99.6,30.5,99.6,30.5,99.5,30.6L99.5,30.6c0.1,0.1,0.3,0.6,1,2.7c-0.4,0-0.7-0.1-1.1-0.1c-0.3,0-0.7,0-1,0.1
	C99.3,31.2,99.5,30.7,99.5,30.6z"/>
<path fill="#040000" d="M117.7,163.1c-0.6-0.5-1.9-0.2-3.5,0.7c1.8-4,2-7.3,0.3-8.4c-0.3-0.2-0.7-0.3-1.2-0.3
	c-1.5,0-3.4,1.2-5.2,3.2c0.1-1.7-0.2-2.9-0.9-3.2c-0.8-0.3-2,0.8-3.1,2.6c-0.8-3.6-2.3-6-4.2-6c-2,0-3.7,2.9-4.4,7
	c-1.2-2.5-2.6-4-3.5-3.7c-0.7,0.2-1,1.2-1,2.7c-1.6-1.5-3.3-2.4-4.6-2.4c-0.5,0-0.9,0.1-1.3,0.3c-1.1,0.7-1.5,2.3-1.1,4.5
	c0.2,1.3,0.7,2.6,1.3,4.1c-2-1.3-3.6-1.9-4.3-1.2c-0.7,0.7,0,2.7,1.6,4.9H116C117.7,165.7,118.4,163.8,117.7,163.1z"/>
<g>
	<polygon fill="#040000" points="80.2,169.5 83.5,186.6 99.1,191.3 114.4,186.6 118.5,169.5 	"/>
</g>
</svg>
