<?xml version="1.0" encoding="utf-8"?>
<!-- Generator: Adobe Illustrator 18.0.0, SVG Export Plug-In . SVG Version: 6.00 Build 0)  -->
<svg version="1.2" baseProfile="tiny" id="圖層_1"
	 xmlns="http://www.w3.org/2000/svg" xmlns:xlink="http://www.w3.org/1999/xlink" x="0px" y="0px" viewBox="0 0 73.7 113.4"
	 xml:space="preserve">
<g>
	<ellipse fill="#F5F5F5" cx="36" cy="76.5" rx="33.4" ry="32.2"/>
	<ellipse fill="#F5F5F5" cx="36" cy="35.7" rx="33.4" ry="32.2"/>
	<path fill="#3E3A39" d="M62.8,51.2c-4.3-4.4-9.6-7.7-15.6-9.5l-6.8-18l-6.1-0.1l-12.2,29l6.4,0.1l2.1-5.3c2-0.4,4.1-0.7,6.3-0.7
		c2.2,0,4.3,0.2,6.3,0.7l2,5.6l6.4,0.1l-1.1-3c3.2,1.7,6.1,3.9,8.5,6.6c-5.4,6.1-13.3,9.9-22.1,9.9s-16.6-3.8-22.1-9.9
		c-1.5-1.7-2.8-3.5-3.9-5.5C8.6,47,7.2,42.1,7.2,37c0-16.3,13.3-29.6,29.6-29.6S66.5,20.7,66.5,37c0,3-0.5,5.9-1.3,8.7
		c0,0.1-0.1,0.3-0.1,0.3l5.2,4.9c0,0,0.1-0.2,0.1-0.3c1.7-4.2,2.7-8.8,2.7-13.6c0-20-16.3-36.2-36.2-36.2S0.6,17,0.6,37
		c0,7.3,2.2,14,5.9,19.7c1.3,2,2.8,3.8,4.4,5.5c6,6.1,14.1,10.2,23.1,10.9l-0.1,21.7l5.8,0l0.1-21.7c9-0.7,17.1-4.8,23-10.9
		c2.3,4.2,3.6,9.1,3.6,14.2c0,16.3-13.3,29.6-29.6,29.6S7.2,92.7,7.2,76.4c0-3.2,0.5-6.4,1.5-9.3c0-0.1,0.1-0.3,0.1-0.3L3.6,62
		c0,0-0.1,0.2-0.2,0.4c-1.8,4.3-2.8,9.1-2.8,14c0,20,16.3,36.2,36.2,36.2s36.2-16.3,36.2-36.2c0-7.3-2.2-14-5.9-19.7
		C65.9,54.7,64.5,52.9,62.8,51.2z M37.2,30.8l0.1-0.3c0,0,0,0.1,0,0.1l0.1,0.4c0.1,0.2,0.8,2,3.5,9.5c-1.3-0.1-2.6-0.2-4-0.2
		c-1.2,0-2.4,0.1-3.6,0.2C36.3,32.9,37,31.1,37.2,30.8z"/>
</g>
</svg>
