<?xml version="1.0" encoding="utf-8"?>
<!-- Generator: Adobe Illustrator 18.0.0, SVG Export Plug-In . SVG Version: 6.00 Build 0)  -->
<svg version="1.2" baseProfile="tiny" id="圖層_1"
	 xmlns="http://www.w3.org/2000/svg" xmlns:xlink="http://www.w3.org/1999/xlink" x="0px" y="0px" viewBox="0 0 198.4 198.4"
	 xml:space="preserve">
<g>
	<g>
		<path fill="#4D4D4D" d="M98.3,95.6v-1.1l-71,71c0.2,0.2,0.3,0.4,0.5,0.6L98.3,95.6z"/>
		<path fill="#4D4D4D" d="M73.6,4.8c-0.5,0.1-1,0.3-1.5,0.4L5.2,72.2c-0.1,0.5-0.3,1-0.4,1.5L73.6,4.8z"/>
		<path fill="#4D4D4D" d="M98.3,29.6v-1.1L4.3,122.6c0.1,0.3,0.1,0.6,0.2,0.9L98.3,29.6z"/>
		<path fill="#4D4D4D" d="M42.2,19.8c-1.5,1.1-3.1,2.3-4.5,3.5L23.2,37.7c-1.2,1.5-2.3,3-3.4,4.5L42.2,19.8z"/>
		<path fill="#4D4D4D" d="M93.3,1.6c-0.4,0-0.8,0.1-1.1,0.1L1.7,92.2c0,0.4,0,0.8-0.1,1.1L93.3,1.6z"/>
		<path fill="#4D4D4D" d="M98.3,46.1v-1.1L8.2,135.2c0.1,0.3,0.2,0.5,0.3,0.8L98.3,46.1z"/>
		<path fill="#4D4D4D" d="M98.3,13.2v-1.1L1.9,108.5c0,0.3,0.1,0.6,0.1,1L98.3,13.2z"/>
		<path fill="#4D4D4D" d="M98.3,62.6v-1.1l-84.8,84.8c0.1,0.2,0.3,0.5,0.4,0.7L98.3,62.6z"/>
		<path fill="#4D4D4D" d="M98.3,79.1v-1.1l-78.4,78.4c0.1,0.2,0.3,0.4,0.4,0.6L98.3,79.1z"/>
		<path fill="#4D4D4D" d="M98.3,112.1v-1.1l-62.5,62.5c0.2,0.2,0.4,0.3,0.6,0.5L98.3,112.1z"/>
		<path fill="#4D4D4D" d="M98.3,145.1v-1.1l-42.7,42.7c0.2,0.1,0.5,0.2,0.7,0.4L98.3,145.1z"/>
		<path fill="#4D4D4D" d="M98.3,194.6v-1.1l-3.3,3.3c0.3,0,0.7,0,1,0L98.3,194.6z"/>
		<path fill="#4D4D4D" d="M98.3,128.6v-1.1l-53.1,53.1c0.2,0.1,0.4,0.3,0.6,0.4L98.3,128.6z"/>
		<path fill="#4D4D4D" d="M98.3,161.6v-1.1l-31.1,31.1c0.3,0.1,0.5,0.2,0.8,0.3L98.3,161.6z"/>
		<path fill="#4D4D4D" d="M98.3,178.1V177l-18.1,18.1c0.3,0.1,0.6,0.1,0.9,0.2L98.3,178.1z"/>
	</g>
	<path fill="#F7C843" d="M99.2,1.4c-0.3,0-0.6,0-0.9,0V197c0.3,0,0.6,0,0.9,0c54,0,97.8-43.8,97.8-97.8C197,45.2,153.2,1.4,99.2,1.4
		z"/>
</g>
</svg>
