<?xml version="1.0" encoding="utf-8"?>
<!-- Generator: Adobe Illustrator 18.0.0, SVG Export Plug-In . SVG Version: 6.00 Build 0)  -->
<svg version="1.2" baseProfile="tiny" id="圖層_1"
	 xmlns="http://www.w3.org/2000/svg" xmlns:xlink="http://www.w3.org/1999/xlink" x="0px" y="0px" viewBox="0 0 198.4 198.4"
	 xml:space="preserve">
<rect x="1.4" y="1.4" fill="#67B2E4" width="195.6" height="195.6"/>
<path fill="#FFFFFF" d="M31.9,144.1c14.3-0.3,27.3-4.3,39.3-12.9c-2.2-0.5-4-0.8-5.7-1.3c-9-2.6-15.7-8.2-20.1-16.5
	c-0.8-1.5-0.8-2.2,1.2-2c3.3,0.2,6.7,0.1,10.5-0.5c-6.5-2.2-11.7-5.8-15.7-10.8c-4.1-5.1-6.4-10.9-6.9-17.6
	c4.2,1.4,8.1,3.1,12.9,3.8c-2.2-2.1-4.1-3.7-5.5-5.7c-7.6-10.2-8.4-21.2-3.8-32.8c0.6-1.6,1.1-1.4,2-0.1C51.6,64,67.5,73.2,87,76.3
	c2.7,0.4,5.4,0.5,8.1,0.6c2.1,0.1,2.4-0.7,2.1-2.5c-1-7.5,0.8-14.3,5.3-20.3c10-13.6,29.6-15.6,42-4.2c1.4,1.3,2.5,1.5,4.2,1
	c4.2-1.2,8.3-2.5,12.3-4.2c0.6-0.3,1.2-0.8,2.2-0.5c-2.1,5.6-5.8,10-10.8,13.9c5.4,0.2,9.8-1.2,14.1-3.4c0.3,1.1-0.4,1.6-0.8,2.1
	c-3,4-6.6,7.5-10.4,10.8c-1.4,1.2-1.9,2.4-1.9,4.2c0.3,20.2-6,38.1-19,53.6c-12.5,14.8-28.3,24-47.4,27.3
	c-18.3,3.2-35.9,0.5-52.3-8.5c-0.9-0.5-1.7-1-2.6-1.5C32.1,144.6,32,144.4,31.9,144.1z"/>
</svg>
