<?xml version="1.0" encoding="utf-8"?>
<!-- Generator: Adobe Illustrator 18.0.0, SVG Export Plug-In . SVG Version: 6.00 Build 0)  -->
<svg version="1.2" baseProfile="tiny" id="圖層_1"
	 xmlns="http://www.w3.org/2000/svg" xmlns:xlink="http://www.w3.org/1999/xlink" x="0px" y="0px" viewBox="0 0 198.4 198.4"
	 xml:space="preserve">
<g>
	<rect x="1.4" y="1.4" fill="#F6B616" width="195.6" height="195.6"/>
	<g>
		<path fill="#FFFFFF" d="M89.5,153.7c-24.6,2.4-45.8-8.7-47.4-24.8c-1.6-16.2,17.1-31.2,41.7-33.6c24.6-2.4,45.8,8.7,47.4,24.8
			C132.7,136.2,114.1,151.3,89.5,153.7 M138.7,100.1c-2.1-0.6-3.5-1.1-2.4-3.8c2.4-6,2.6-11.1,0-14.8c-4.8-6.9-18-6.5-33.2-0.2
			c0,0-4.8,2.1-3.5-1.7c2.3-7.5,2-13.7-1.6-17.4c-8.2-8.2-30,0.3-48.8,19c-14,14-22.2,28.9-22.2,41.7c0,24.6,31.5,39.5,62.4,39.5
			c40.4,0,67.3-23.5,67.3-42.1C156.7,109.1,147.2,102.8,138.7,100.1"/>
		<path fill="#FFFFFF" d="M165.5,55.1c-9.8-10.8-24.2-14.9-37.4-12.1h0c-3.1,0.7-5,3.7-4.4,6.8c0.7,3.1,3.7,5,6.8,4.4
			c9.5-2,19.7,0.9,26.6,8.6c6.9,7.7,8.8,18.2,5.8,27.4l0,0c-1,3,0.7,6.2,3.7,7.2c3,1,6.2-0.7,7.2-3.7l0,0
			C177.9,80.7,175.3,65.9,165.5,55.1"/>
		<path fill="#FFFFFF" d="M150.5,68.7c-4.8-5.3-11.8-7.3-18.2-5.9c-2.6,0.6-4.3,3.2-3.8,5.8c0.6,2.6,3.2,4.3,5.8,3.8v0
			c3.2-0.7,6.6,0.3,8.9,2.9c2.3,2.6,3,6.1,2,9.2h0c-0.8,2.6,0.6,5.3,3.2,6.2c2.6,0.8,5.3-0.6,6.2-3.2
			C156.6,81.1,155.3,73.9,150.5,68.7"/>
		<path fill="#FFFFFF" d="M90.8,124.5c-0.9,1.5-2.8,2.2-4.3,1.6c-1.5-0.6-1.9-2.2-1.1-3.7c0.9-1.4,2.7-2.1,4.1-1.6
			C91.1,121.3,91.7,123,90.8,124.5 M83,134.5c-2.4,3.8-7.5,5.5-11.3,3.7c-3.8-1.7-4.9-6.1-2.5-9.8c2.4-3.7,7.3-5.3,11.1-3.7
			C84.1,126.3,85.3,130.7,83,134.5 M91.9,107.7c-11.7-3-24.9,2.8-30,13.1c-5.2,10.5-0.2,22.2,11.7,26c12.3,4,26.7-2.1,31.7-13.5
			C110.2,122.2,104.1,110.8,91.9,107.7"/>
	</g>
</g>
</svg>
